<?xml version="1.0" encoding="utf-8"?>
<!-- Generator: Adobe Illustrator 25.4.1, SVG Export Plug-In . SVG Version: 6.00 Build 0)  -->
<svg version="1.1" id="Calque_1" xmlns="http://www.w3.org/2000/svg" xmlns:xlink="http://www.w3.org/1999/xlink" x="0px" y="0px"
	 viewBox="0 0 268.9 86.2" style="enable-background:new 0 0 268.9 86.2;" xml:space="preserve">
<style type="text/css">
	.st0{fill-rule:evenodd;clip-rule:evenodd;fill:fill:#FF2D20;;}
</style>
<path class="st0" d="M107.7,27.3v32.9h11.9v5.7h-18.2V27.3C101.4,27.3,107.7,27.3,107.7,27.3z M142,43.7v-3.5h6v25.7h-6v-3.5
	c-0.8,1.3-2,2.3-3.4,3c-1.5,0.7-3,1.1-4.5,1.1c-1.9,0-3.7-0.4-5.3-1.1c-1.6-0.7-3-1.7-4.2-2.9c-1.2-1.3-2.1-2.7-2.7-4.3
	c-0.6-1.6-1-3.4-1-5.2c0-1.8,0.3-3.5,1-5.1c0.6-1.6,1.5-3.1,2.7-4.3c1.2-1.3,2.6-2.3,4.2-2.9c1.6-0.7,3.4-1.1,5.3-1.1
	c1.5,0,3,0.4,4.5,1.1S141.2,42.4,142,43.7L142,43.7z M141.4,56.2c0.4-1,0.6-2.1,0.6-3.1c0-1.1-0.2-2.1-0.6-3.1
	c-0.3-1-0.9-1.8-1.5-2.6c-0.7-0.7-1.5-1.3-2.4-1.8c-0.9-0.4-2-0.7-3.1-0.7c-1.1,0-2.2,0.2-3.1,0.7c-0.9,0.4-1.7,1-2.4,1.8
	c-0.7,0.8-1.2,1.6-1.5,2.6c-0.4,1-0.5,2.1-0.5,3.1c0,1.1,0.2,2.1,0.5,3.1c0.3,1,0.9,1.9,1.5,2.6c0.7,0.7,1.5,1.3,2.4,1.8
	c0.9,0.4,1.9,0.7,3.1,0.7s2.2-0.2,3.1-0.7c0.9-0.4,1.7-1,2.4-1.8C140.5,58,141.1,57.1,141.4,56.2z M152.7,65.8V40.2H169v5.9h-10.3
	v19.7L152.7,65.8L152.7,65.8z M190.7,43.7v-3.5h6v25.7h-6v-3.5c-0.8,1.3-2,2.3-3.4,3c-1.5,0.7-3,1.1-4.5,1.1c-1.9,0-3.7-0.4-5.3-1.1
	c-1.6-0.7-3-1.7-4.2-2.9c-1.2-1.3-2.1-2.7-2.7-4.3c-0.6-1.6-1-3.4-1-5.2c0-1.8,0.3-3.5,1-5.1c0.6-1.6,1.5-3.1,2.7-4.3
	c1.2-1.3,2.6-2.3,4.2-2.9c1.6-0.7,3.4-1.1,5.3-1.1c1.5,0,3,0.4,4.5,1.1C188.8,41.4,189.9,42.4,190.7,43.7z M190.2,56.2
	c0.4-1,0.6-2.1,0.6-3.1c0-1.1-0.2-2.1-0.6-3.1c-0.3-1-0.9-1.8-1.5-2.6c-0.7-0.7-1.5-1.3-2.4-1.8c-0.9-0.4-2-0.7-3.1-0.7
	c-1.1,0-2.2,0.2-3.1,0.7c-0.9,0.4-1.7,1-2.4,1.8c-0.7,0.8-1.2,1.6-1.5,2.6c-0.4,1-0.5,2.1-0.5,3.1c0,1.1,0.2,2.1,0.5,3.1
	c0.3,1,0.9,1.9,1.5,2.6c0.7,0.7,1.5,1.3,2.4,1.8c0.9,0.4,1.9,0.7,3.1,0.7c1.1,0,2.2-0.2,3.1-0.7c0.9-0.4,1.7-1,2.4-1.8
	C189.3,58,189.8,57.1,190.2,56.2z M220.8,40.2h6.1L217,65.9h-7.5l-9.8-25.7h6.1l7.5,19.6L220.8,40.2z M240,39.5
	c8.2,0,13.7,7.2,12.7,15.7h-19.9c0,2.2,2.2,6.5,7.5,6.5c4.6,0,7.6-4,7.6-4l4.1,3.1c-3.6,3.9-6.6,5.6-11.2,5.6
	c-8.3,0-13.9-5.3-13.9-13.5C226.8,45.6,232.6,39.5,240,39.5L240,39.5z M232.8,50.8h14.4c0-0.5-0.8-6.5-7.2-6.5
	C233.5,44.3,232.8,50.3,232.8,50.8z M256.6,65.8V27.3h6v38.5H256.6z"/>
<path class="st0" d="M77.1,23.9c0,0.1,0,0.2,0,0.3v15.6c0,0.4-0.2,0.8-0.6,1l-13.1,7.6v15c0,0.4-0.2,0.8-0.6,1L35.5,80.1
	c-0.1,0-0.1,0.1-0.2,0.1c0,0,0,0-0.1,0c-0.2,0.1-0.4,0.1-0.6,0c0,0-0.1,0-0.1,0c-0.1,0-0.1,0-0.2-0.1L6.9,64.4
	c-0.4-0.2-0.6-0.6-0.6-1V16.4c0-0.1,0-0.2,0-0.3c0,0,0-0.1,0-0.1c0-0.1,0-0.1,0.1-0.2c0,0,0.1-0.1,0.1-0.1c0,0,0.1-0.1,0.1-0.1
	c0,0,0.1-0.1,0.1-0.1c0,0,0.1-0.1,0.1-0.1h0l13.7-7.9c0.4-0.2,0.8-0.2,1.1,0l13.7,7.9h0c0,0,0.1,0.1,0.1,0.1c0,0,0.1,0.1,0.1,0.1
	c0,0,0.1,0.1,0.1,0.1c0,0,0.1,0.1,0.1,0.1c0,0.1,0.1,0.1,0.1,0.2c0,0,0,0.1,0,0.1c0,0.1,0,0.2,0,0.3v29.3l11.4-6.6v-15
	c0-0.1,0-0.2,0-0.3c0,0,0-0.1,0-0.1c0-0.1,0-0.1,0.1-0.2c0,0,0.1-0.1,0.1-0.1c0,0,0.1-0.1,0.1-0.1c0,0,0.1-0.1,0.1-0.1
	c0,0,0.1-0.1,0.1-0.1h0l13.7-7.9c0.4-0.2,0.8-0.2,1.1,0l13.7,7.9c0,0,0.1,0.1,0.1,0.1c0,0,0.1,0.1,0.1,0.1c0,0,0.1,0.1,0.1,0.1
	c0,0,0.1,0.1,0.1,0.1C77,23.7,77,23.7,77.1,23.9C77.1,23.8,77.1,23.9,77.1,23.9z M74.9,39.2v-13l-4.8,2.8l-6.6,3.8v13L74.9,39.2
	L74.9,39.2z M61.2,62.7v-13l-6.5,3.7L36,64v13.1C36,77.2,61.2,62.7,61.2,62.7z M8.6,18.4v44.3l25.1,14.5V64l-13.1-7.4l0,0l0,0
	c0,0-0.1-0.1-0.1-0.1c0,0-0.1-0.1-0.1-0.1l0,0c0,0-0.1-0.1-0.1-0.1c0,0-0.1-0.1-0.1-0.1l0,0c0,0,0-0.1-0.1-0.1c0,0,0-0.1-0.1-0.1v0
	c0-0.1,0-0.1,0-0.2c0,0,0-0.1,0-0.1v0V25l-6.6-3.8L8.6,18.4L8.6,18.4z M21.2,9.9L9.8,16.4L21.2,23l11.4-6.6L21.2,9.9L21.2,9.9z
	 M27.1,50.9l6.6-3.8V18.4l-4.8,2.8L22.3,25v28.7C22.3,53.6,27.1,50.9,27.1,50.9z M62.3,17.6l-11.4,6.6l11.4,6.6l11.4-6.6
	C73.7,24.2,62.3,17.6,62.3,17.6z M61.2,32.7l-6.6-3.8l-4.8-2.8v13l6.6,3.8l4.8,2.8C61.2,45.8,61.2,32.7,61.2,32.7z M34.9,62.1
	l16.7-9.6l8.4-4.8l-11.4-6.6l-13.1,7.6l-12,6.9C23.5,55.6,34.9,62.1,34.9,62.1z"/>
</svg>
